HIERARCHY
ROOT Hips
{
	OFFSET 0.000000 0.000000 0.000000
	CHANNELS 6 Xposition Yposition Zposition Zrotation Yrotation Xrotation 
	JOINT LHipJoint
	{
		OFFSET 0.000000 0.000000 0.000000
		CHANNELS 3 Zrotation Yrotation Xrotation
		JOINT LeftUpLeg
		{
			OFFSET 1.363060 -1.794630 0.839290
			CHANNELS 3 Zrotation Yrotation Xrotation
			JOINT LeftLeg
			{
				OFFSET 2.448110 -6.726130 0.000000
				CHANNELS 3 Zrotation Yrotation Xrotation
				JOINT LeftFoot
				{
					OFFSET 2.562200 -7.039590 0.000000
					CHANNELS 3 Zrotation Yrotation Xrotation
					JOINT LeftToeBase
					{
						OFFSET 0.157640 -0.433110 2.322550
						CHANNELS 3 Zrotation Yrotation Xrotation
						End Site
						{
							OFFSET 0.000000 0.000000 0.000000
						}
					}
				}
			}
		}
	}
	JOINT RHipJoint
	{
		OFFSET 0.000000 0.000000 0.000000
		CHANNELS 3 Zrotation Yrotation Xrotation
		JOINT RightUpLeg
		{
			OFFSET -1.305520 -1.794630 0.839290
			CHANNELS 3 Zrotation Yrotation Xrotation
			JOINT RightLeg
			{
				OFFSET -2.542530 -6.985550 0.000000
				CHANNELS 3 Zrotation Yrotation Xrotation
				JOINT RightFoot
				{
					OFFSET -2.568260 -7.056230 0.000000
					CHANNELS 3 Zrotation Yrotation Xrotation
					JOINT RightToeBase
					{
						OFFSET -0.164730 -0.452590 2.363150
						CHANNELS 3 Zrotation Yrotation Xrotation
						End Site
						{
							OFFSET 0.000000 0.000000 0.000000
						}
					}
				}
			}
		}
	}
}
MOTION
Frames: 11
Frame Time: 0.008333
2.460005 16.933890 0.322005 44.904170 -88.224926 -43.499970 -9.331295 3.220191 2.916086 -4.510497 2.096414 -8.926995 -1.634571 0.416009 19.929918 1.788103 10.573387 -9.621400 -0.486900 0.000000 -46.741000 11.607708 -1.125547 -0.019485 -0.521139 -11.053280 -7.038960 0.686858 -0.854525 24.224193 -2.343921 -10.959494 -9.663731 0.039599 0.000000 -70.991000
2.440067 16.931841 0.315948 35.273209 -87.618384 -33.923200 -9.373992 3.351689 3.138151 -4.526327 1.246289 -8.977786 -1.653491 0.480518 19.989588 1.791595 10.537558 -9.670789 -0.489200 0.000001 -46.733500 11.537970 -1.009141 -0.149025 -0.520614 -11.472208 -6.578780 0.610432 -0.768065 24.032944 -2.448051 -11.546169 -9.678110 0.035100 0.000000 -70.833100
2.418773 16.931229 0.310230 28.384058 -86.807537 -27.084877 -9.438348 3.432269 3.361954 -4.537475 0.353664 -8.993121 -1.658721 0.520025 19.987133 1.785406 10.456885 -9.681727 -0.484000 0.000000 -46.725400 11.443508 -0.950368 -0.268902 -0.519000 -11.933405 -6.092247 0.551831 -0.699997 23.762227 -2.560445 -12.175040 -9.662919 0.021400 -0.000000 -70.646700
2.396457 16.932026 0.304655 23.423165 -85.855606 -22.178073 -9.493496 3.480035 3.583083 -4.538135 -0.564983 -8.959778 -1.656785 0.539947 19.909176 1.770677 10.335323 -9.650946 -0.470500 0.000001 -46.725700 11.354946 -0.930790 -0.380380 -0.511779 -12.421282 -5.569864 0.504158 -0.644673 23.413536 -2.679129 -12.840025 -9.614483 -0.003200 0.000001 -70.443200
2.372704 16.934204 0.299501 19.701492 -84.800138 -18.507113 -9.532396 3.509987 3.806693 -4.521960 -1.500400 -8.898505 -1.652094 0.545529 19.763933 1.747414 10.168498 -9.583091 -0.449500 -0.000000 -46.737600 11.279537 -0.937894 -0.483133 -0.492538 -12.939449 -5.021020 0.464008 -0.595080 22.987971 -2.800629 -13.526410 -9.529003 -0.040500 -0.000001 -70.223699
2.347776 16.937703 0.294669 16.868750 -83.672863 -15.725702 -9.551986 3.530890 4.030657 -4.493188 -2.441781 -8.801050 -1.647587 0.540262 19.542204 1.716700 9.963249 -9.474779 -0.420700 0.000000 -46.766800 11.220874 -0.961930 -0.578776 -0.466730 -13.474440 -4.440622 0.427414 -0.548017 22.489003 -2.923970 -14.230974 -9.404401 -0.092400 -0.000000 -70.000400
2.321251 16.942525 0.290400 14.629345 -82.484207 -13.531262 -9.555193 3.548107 4.259995 -4.449959 -3.388472 -8.686042 -1.644368 0.526144 19.253389 1.678669 9.718601 -9.328883 -0.385000 -0.000000 -46.815600 11.176356 -0.999624 -0.667163 -0.433298 -14.039146 -3.839177 0.394500 -0.500108 21.914671 -3.045963 -14.939557 -9.237564 -0.160800 0.000000 -69.780000
2.293321 16.948595 0.286653 12.845872 -81.252452 -11.787416 -9.542411 3.564662 4.493063 -4.397389 -4.336036 -8.548809 -1.643349 0.504686 18.893048 1.634687 9.443962 -9.142514 -0.342699 0.000000 -46.883800 11.145905 -1.046822 -0.748260 -0.395919 -14.619945 -3.216791 0.362991 -0.450453 21.269852 -3.167176 -15.655975 -9.027743 -0.247900 0.000000 -69.568400
2.263694 16.955880 0.283662 11.379055 -79.977137 -10.350351 -9.516068 3.582152 4.734378 -4.334460 -5.291168 -8.403421 -1.644378 0.476576 18.470167 1.585445 9.142767 -8.917877 -0.294700 0.000000 -46.973500 11.127282 -1.103401 -0.822858 -0.356129 -15.236927 -2.582225 0.334434 -0.397334 20.549896 -3.284200 -16.365642 -8.771319 -0.355700 0.000000 -69.378400
2.232595 16.964348 0.281413 10.172841 -78.672669 -9.162193 -9.476387 3.601488 4.982504 -4.265755 -6.252621 -8.248356 -1.647618 0.442572 17.982864 1.532811 8.827797 -8.652983 -0.241700 0.000001 -47.078400 11.120304 -1.167049 -0.889453 -0.313638 -15.871327 -1.940182 0.306865 -0.340878 19.763751 -3.399109 -17.079201 -8.469794 -0.485901 0.000000 -69.200000
2.199731 16.973968 0.280099 9.154416 -77.333155 -8.147009 -9.424381 3.623154 5.241697 -4.190237 -7.232837 -8.092009 -1.652583 0.402937 17.437503 1.477809 8.505577 -8.348613 -0.184400 0.000001 -47.202100 11.123999 -1.238601 -0.950362 -0.272227 -16.549612 -1.294447 0.282398 -0.279813 18.901525 -3.508106 -17.781506 -8.117236 -0.641200 -0.000000 -69.055600
